# xmcd
#
# Track frame offsets: 
#        150
#        17778
#        29853
#        38581
#        53671
#        66116
#        82843
#        95099
#
# Disc length: 1418 seconds
#
# Revision: 0
# Processed by: cddbd v1.5.2PL0 Copyright (c) Steve Scherf et al.
# Submitted via: ExactAudioCopy v0.95b4
#
DISCID=60058808
DTITLE=The Fall - The Marshall Suite CD3
DYEAR=1999
DGENRE=Punk
TTITLE0=Shake Off
TTITLE1=F'-Oldin' Money
TTITLE2=Jet Boy
TTITLE3=Touch Sensitive
TTITLE4=Antidotes
TTITLE5=10 Houses Of Eve
TTITLE6=Inevitable
TTITLE7=This Perfect Day
EXTD=
EXTT0=
EXTT1=
EXTT2=
EXTT3=
EXTT4=
EXTT5=
EXTT6=
EXTT7=
PLAYORDER=
